<?xml version="1.0" encoding="UTF-8"?>
<svg xmlns="http://www.w3.org/2000/svg" viewBox="0 0 126 117.63">
  <defs>
    <style>
      .cls-1 {
        fill: #fff;
      }

      .cls-2 {
        fill: #737f7e;
      }

      .cls-3 {
        isolation: isolate;
      }

      .cls-4 {
        fill: #d1d3d4;
      }

      .cls-4, .cls-5 {
        mix-blend-mode: multiply;
      }

      .cls-5 {
        fill: #a7a9ac;
      }
    </style>
  </defs>
  <g class="cls-3">
    <g id="Calque_2" data-name="Calque 2">
      <g id="OBJECTS">
        <g>
          <path class="cls-1" d="M99.85,117.61h0c-36.87-27.93-68.53.02-68.53.02H0s18.73-26.44,50.07-26.41c33.56.03,49.29,25.59,49.78,26.39Z"/>
          <path class="cls-5" d="M99.85,117.61h0c-36.87-27.93-68.53.02-68.53.02h-11.49c5.05-9.93,15.91-19.06,37.31-18.43,28.76.83,42.23,17.81,42.71,18.42Z"/>
          <polygon class="cls-1" points="126 12.01 126 111.27 99.73 62.22 99.73 12.01 113.04 0 126 12.01"/>
          <path class="cls-2" d="M126,117.63h-26.14l-6.71-12.42-1.14-2.11c-1.75-1.82-5.93-5.65-12.5-8.87.24.06,4.78,1.24,9.36,3.06l-25.88-47.93-2.69,5.17-16.28,31.34c2.98.55,5.27,1.56,6.84,2.45-.28-.01-.57-.01-.85-.01-2.59,0-5.09.17-7.51.48-.43.06-.86.12-1.28.18-.18.02-.36.05-.53.09-.51.08-1,.16-1.5.26-7.21,1.35-13.58,3.94-19.03,6.99,0,0,0,0,0,0-.9.51-1.78,1.03-2.64,1.56-.29.17-.57.36-.84.53-.24.16-.48.31-.72.47-.58.38-1.15.77-1.71,1.15-.13.09-.27.19-.4.29-.22.15-.43.3-.63.45-.33.23-.64.47-.95.7-2.49,1.87-4.69,3.75-6.57,5.52v-.02c-2.27,2.14-4.09,4.11-5.42,5.65,1.37-3.06,4.29-8.47,9.37-13L44.23,35.06l5.8-10.84L63,0l63,117.63Z"/>
          <polygon class="cls-4" points="63 49.36 60.31 54.53 44.23 35.06 50.03 24.22 63 49.36"/>
        </g>
      </g>
    </g>
  </g>
</svg>